<svg width="1728" height="1101" viewBox="0 0 1728 1101" fill="none" xmlns="http://www.w3.org/2000/svg">
<path d="M-269.118 -316.852C-283.412 -370.198 -251.754 -425.032 -198.407 -439.326L1558.61 -910.118C1611.96 -924.412 1666.79 -892.754 1681.09 -839.407L2040.93 503.54C2055.22 556.886 2023.56 611.72 1970.22 626.014L213.198 1096.81C159.851 1111.1 105.018 1079.44 90.7235 1026.1L-269.118 -316.852Z" fill="url(#paint0_linear_30_204)"/>
<path opacity="0.5" fill-rule="evenodd" clip-rule="evenodd" d="M1446.99 896.856C1439.55 901.296 1433.02 907.107 1427.74 913.982C1422.26 921.122 1418.24 929.271 1415.91 937.963C1413.58 946.656 1412.98 955.721 1414.16 964.643C1415.33 973.564 1418.25 982.166 1422.75 989.958C1427.25 997.75 1433.24 1004.58 1440.38 1010.06C1447.52 1015.53 1455.66 1019.55 1464.36 1021.88C1473.05 1024.2 1482.12 1024.8 1491.04 1023.62C1499.64 1022.49 1507.93 1019.74 1515.5 1015.51C1515.79 1015.35 1516.08 1015.19 1516.37 1015.02L1516.32 1014.94L1629.49 949.599C1634.45 946.735 1640.79 948.433 1643.66 953.391L1651.43 966.858C1657.16 976.775 1653.76 989.457 1643.83 995.185L1539.64 1055.34C1526.55 1062.9 1512.1 1067.81 1497.11 1069.78C1482.12 1071.76 1466.9 1070.76 1452.3 1066.85C1437.69 1062.94 1424.01 1056.2 1412.02 1047C1400.03 1037.8 1389.97 1026.33 1382.41 1013.25C1374.85 1000.16 1369.95 985.712 1367.98 970.729C1366.01 955.746 1367.01 940.52 1370.93 925.921C1374.84 911.323 1381.6 897.637 1390.8 885.645C1400.01 873.653 1411.48 863.59 1424.57 856.031L1600.62 754.392C1605.58 751.528 1611.92 753.226 1614.78 758.184L1622.56 771.651C1628.28 781.567 1624.88 794.25 1614.96 799.978L1447.9 896.432L1447.85 896.35C1447.85 896.352 1447.84 896.354 1447.84 896.356C1447.56 896.521 1447.27 896.688 1446.99 896.856ZM1448.27 895.066L1448.22 894.984L1447.35 895.484C1439.44 900.05 1432.51 906.129 1426.95 913.373C1421.39 920.617 1417.31 928.885 1414.94 937.704C1412.58 946.523 1411.97 955.721 1413.16 964.773C1414.36 973.824 1417.32 982.552 1421.88 990.458C1426.45 998.364 1432.52 1005.29 1439.77 1010.85C1447.01 1016.41 1455.28 1020.48 1464.1 1022.84C1472.92 1025.2 1482.12 1025.8 1491.17 1024.61C1500.23 1023.42 1508.96 1020.45 1516.87 1015.89L1517.73 1015.39L1517.69 1015.31L1629.99 950.465C1634.47 947.877 1640.2 949.412 1642.79 953.891L1650.57 967.358C1656.01 976.796 1652.78 988.867 1643.33 994.319L1539.14 1054.47C1526.17 1061.97 1511.84 1066.83 1496.98 1068.79C1482.12 1070.75 1467.03 1069.76 1452.55 1065.89C1438.08 1062.01 1424.51 1055.33 1412.63 1046.21C1400.74 1037.09 1390.77 1025.72 1383.28 1012.75C1375.79 999.774 1370.93 985.452 1368.97 970.599C1367.02 955.746 1368.01 940.652 1371.89 926.18C1375.78 911.708 1382.47 898.141 1391.59 886.254C1400.72 874.366 1412.1 864.391 1425.07 856.897L1601.12 755.258C1605.6 752.67 1611.33 754.204 1613.92 758.684L1621.69 772.151C1627.14 781.589 1623.91 793.66 1614.46 799.112L1448.27 895.066ZM1615.77 853.335L1491.42 925.132C1480.73 931.3 1477.07 944.957 1483.23 955.634C1489.4 966.312 1503.06 969.969 1513.74 963.801L1625.53 899.261C1635.98 893.224 1639.57 879.857 1633.53 869.406L1625.81 856.021C1623.78 852.509 1619.29 851.306 1615.77 853.335ZM1490.92 924.266C1479.75 930.71 1475.93 944.978 1482.37 956.134C1488.81 967.29 1503.08 971.111 1514.24 964.667L1626.03 900.127C1636.96 893.814 1640.71 879.836 1634.4 868.906L1626.67 855.521C1624.37 851.531 1619.26 850.164 1615.27 852.469L1490.92 924.266Z" fill="#1F35C7"/>
<path opacity="0.1" d="M1501 238C1501 226.954 1509.95 218 1521 218H1595C1622.61 218 1645 240.386 1645 268V308C1645 319.046 1636.05 328 1625 328H1551C1523.39 328 1501 305.614 1501 278V238Z" fill="white"/>
<path opacity="0.1" d="M1592 146C1592 134.954 1600.95 126 1612 126H1663C1690.61 126 1713 148.386 1713 176V198C1713 209.046 1704.05 218 1693 218H1642C1614.39 218 1592 195.614 1592 168V146Z" fill="white"/>
<path opacity="0.1" d="M1564 70.7143C1564 60.931 1571.93 53 1581.71 53H1600.71C1625.17 53 1645 72.8274 1645 97.2857V97.2857C1645 107.069 1637.07 115 1627.29 115H1608.29C1583.83 115 1564 95.1726 1564 70.7143V70.7143Z" fill="white"/>
<path opacity="0.1" d="M61 951.873C61 937.252 72.8522 925.4 87.4727 925.4H185.422C221.973 925.4 251.604 955.031 251.604 991.582V1044.53C251.604 1059.15 239.751 1071 225.131 1071H127.182C90.6307 1071 61 1041.37 61 1004.82V951.873Z" fill="white"/>
<path opacity="0.1" d="M181.451 830.098C181.451 815.478 193.303 803.625 207.924 803.625H275.429C311.98 803.625 341.611 833.256 341.611 869.807V898.927C341.611 913.548 329.759 925.4 315.138 925.4H247.633C211.082 925.4 181.451 895.769 181.451 859.218V830.098Z" fill="white"/>
<path opacity="0.1" d="M144.389 730.447C144.389 717.498 154.887 707 167.836 707H192.985C225.359 707 251.604 733.244 251.604 765.618V765.618C251.604 778.568 241.106 789.065 228.156 789.065H203.007C170.633 789.065 144.389 762.821 144.389 730.447V730.447Z" fill="white"/>
<path opacity="0.2" fill-rule="evenodd" clip-rule="evenodd" d="M205.374 243.546C186.764 254.44 170.44 268.839 157.307 285.948C143.971 303.322 134.188 323.15 128.515 344.301C122.843 365.452 121.392 387.512 124.247 409.219C127.101 430.927 134.205 451.859 145.151 470.819C156.098 489.78 170.674 506.397 188.046 519.723C205.418 533.049 225.248 542.823 246.401 548.486C267.555 554.149 289.618 555.59 311.332 552.728C332.716 549.909 353.348 542.971 372.087 532.302C372.376 532.137 372.666 531.971 372.954 531.804L372.84 531.606L648.219 372.615C660.29 365.646 675.722 369.777 682.687 381.842L701.606 414.611C715.538 438.741 707.261 469.601 683.121 483.539L429.596 629.911C397.738 648.304 362.571 660.246 326.102 665.053C289.633 669.86 252.577 667.439 217.05 657.928C181.522 648.417 148.219 632.002 119.042 609.621L119.651 608.828C148.724 631.129 181.908 647.485 217.309 656.962C252.709 666.439 289.632 668.851 325.971 664.061C362.31 659.271 397.352 647.373 429.096 629.045L682.621 482.673C706.283 469.011 714.395 438.762 700.74 415.111L681.821 382.342C675.132 370.756 660.312 366.788 648.719 373.481L374.206 531.972L374.32 532.17L373.454 532.67C354.372 543.688 333.307 550.84 311.463 553.719C289.618 556.599 267.423 555.149 246.142 549.452C224.862 543.755 204.914 533.923 187.437 520.517C169.961 507.111 155.298 490.393 144.285 471.319C133.273 452.245 126.127 431.188 123.255 409.35C120.383 387.512 121.843 365.32 127.549 344.042C133.256 322.764 143.098 302.817 156.513 285.339C169.929 267.861 186.656 253.195 205.738 242.178L206.604 241.678L206.719 241.876L612.366 7.67616C636.029 -5.98564 644.141 -36.2344 630.486 -59.8858L611.567 -92.6543C604.878 -104.241 590.058 -108.209 578.465 -101.516L150.096 145.803C118.352 164.131 90.5264 188.529 68.209 217.604C45.8912 246.679 29.5185 279.862 20.0259 315.258C10.5328 350.655 8.10534 387.571 12.8825 423.899C17.6591 460.228 29.5466 495.257 47.866 526.987C66.1854 558.717 90.5779 586.527 119.651 608.828L119.042 609.621C89.865 587.24 65.385 559.331 47 527.487C28.6149 495.643 16.6848 460.488 11.891 424.029C7.09676 387.571 9.53294 350.522 19.06 314.999C28.5866 279.476 45.018 246.174 67.4158 216.995C89.8131 187.816 117.738 163.33 149.596 144.937L577.965 -102.382C590.035 -109.351 605.467 -105.219 612.433 -93.1543L631.352 -60.3858C645.283 -36.2557 637.007 -5.39556 612.866 8.54219L206.353 243.243L206.238 243.044C205.95 243.211 205.662 243.378 205.374 243.546ZM614.119 137.135L311.524 311.838C284.843 327.242 275.696 361.349 291.093 388.016C306.49 414.684 340.6 423.816 367.28 408.412L639.287 251.369C665.416 236.283 674.374 202.881 659.295 176.764L640.491 144.195C635.162 134.964 623.355 131.803 614.119 137.135ZM311.024 310.972C283.865 326.652 274.554 361.37 290.227 388.516C305.9 415.663 340.622 424.958 367.78 409.278L639.787 252.235C666.394 236.873 675.516 202.86 660.161 176.264L641.357 143.695C635.751 133.985 623.332 130.661 613.619 136.269L311.024 310.972Z" fill="white"/>
<defs>
<linearGradient id="paint0_linear_30_204" x1="1699" y1="-83.5001" x2="149.5" y2="1123" gradientUnits="userSpaceOnUse">
<stop stop-color="#1F35C7"/>
<stop offset="1" stop-color="#142038"/>
</linearGradient>
</defs>
</svg>
